<svg width="536" height="361" viewBox="0 0 536 361" fill="none" xmlns="http://www.w3.org/2000/svg">
<g clip-path="url(#clip0_4393_2)">
<path d="M0.357971 181.659V153.108C16.7405 153.108 28.1042 149.841 34.4489 143.307C40.7936 136.773 43.9659 126.214 43.9659 111.631V80.2385C43.9659 62.7196 46.3807 48.7044 51.2102 38.1931C56.1345 27.587 62.9527 19.5851 71.6648 14.1874C80.4716 8.78971 90.8883 5.19122 102.915 3.39197C114.941 1.59273 128.104 0.693115 142.403 0.693115V45.8635C131.229 45.8635 122.706 47.3313 116.835 50.2669C111.059 53.1079 107.129 57.5586 105.045 63.6192C102.962 69.5851 101.92 77.1609 101.92 86.3465V127.824C101.92 135.021 100.595 141.886 97.9432 148.42C95.2917 154.86 90.3674 160.589 83.1705 165.608C75.9735 170.532 65.6989 174.462 52.3466 177.398C38.9943 180.239 21.6648 181.659 0.357971 181.659ZM142.403 360.21C128.104 360.21 114.941 359.311 102.915 357.511C90.8883 355.712 80.4716 352.114 71.6648 346.716C62.9527 341.318 56.1345 333.316 51.2102 322.71C46.3807 312.199 43.9659 298.184 43.9659 280.665V249.131C43.9659 234.547 40.7936 223.989 34.4489 217.455C28.1042 210.92 16.7405 207.653 0.357971 207.653V179.102C21.6648 179.102 38.9943 180.57 52.3466 183.506C65.6989 186.347 75.9735 190.277 83.1705 195.295C90.3674 200.22 95.2917 205.949 97.9432 212.483C100.595 218.922 101.92 225.788 101.92 233.08V274.557C101.92 283.648 102.962 291.176 105.045 297.142C107.129 303.203 111.059 307.653 116.835 310.494C122.706 313.43 131.229 314.898 142.403 314.898V360.21ZM0.357971 207.653V153.108H51.3523V207.653H0.357971ZM535.763 179.102V207.653C519.475 207.653 508.111 210.92 501.672 217.455C495.327 223.989 492.155 234.547 492.155 249.131V280.665C492.155 298.184 489.693 312.199 484.768 322.71C479.939 333.316 473.121 341.318 464.314 346.716C455.602 352.114 445.232 355.712 433.206 357.511C421.274 359.311 408.111 360.21 393.717 360.21V314.898C404.892 314.898 413.367 313.43 419.143 310.494C425.015 307.653 428.992 303.203 431.075 297.142C433.159 291.176 434.2 283.648 434.2 274.557V233.08C434.2 225.788 435.526 218.922 438.178 212.483C440.829 205.949 445.753 200.22 452.95 195.295C460.147 190.277 470.422 186.347 483.774 183.506C497.126 180.57 514.456 179.102 535.763 179.102ZM393.717 0.693115C408.111 0.693115 421.274 1.59273 433.206 3.39197C445.232 5.19122 455.602 8.78971 464.314 14.1874C473.121 19.5851 479.939 27.587 484.768 38.1931C489.693 48.7044 492.155 62.7196 492.155 80.2385V111.631C492.155 126.214 495.327 136.773 501.672 143.307C508.111 149.841 519.475 153.108 535.763 153.108V181.659C514.456 181.659 497.126 180.239 483.774 177.398C470.422 174.462 460.147 170.532 452.95 165.608C445.753 160.589 440.829 154.86 438.178 148.42C435.526 141.886 434.2 135.021 434.2 127.824V86.3465C434.2 77.1609 433.159 69.5851 431.075 63.6192C428.992 57.5586 425.015 53.1079 419.143 50.2669C413.367 47.3313 404.892 45.8635 393.717 45.8635V0.693115ZM535.763 153.108V207.653H484.768V153.108H535.763Z" fill="#737373"/>
<path d="M230.649 234.216L230.791 161.631H239.598L309.484 78.8182H378.945L285.053 188.477H270.706L230.649 234.216ZM175.82 297V6.09094H236.331V297H175.82ZM312.183 297L247.979 201.972L288.32 159.216L383.064 297H312.183Z" fill="black"/>
</g>
<defs>
<clipPath id="clip0_4393_2">
<rect width="536" height="361" fill="white"/>
</clipPath>
</defs>
</svg>
