<svg width="894" height="336" viewBox="0 0 894 336" fill="none" xmlns="http://www.w3.org/2000/svg">
<rect width="894" height="336" fill="#0F0E0F"/>
<path fill-rule="evenodd" clip-rule="evenodd" d="M166 57C104.705 57 55 107.951 55 170.81C55 221.093 86.8048 263.753 130.909 278.803C136.456 279.856 138.492 276.333 138.492 273.327C138.492 270.616 138.389 261.649 138.342 252.139C107.462 259.023 100.946 238.71 100.946 238.71C95.8964 225.557 88.6211 222.058 88.6211 222.058C78.55 214.994 89.3803 215.139 89.3803 215.139C100.526 215.942 106.395 226.869 106.395 226.869C116.296 244.266 132.362 239.236 138.697 236.328C139.695 228.974 142.57 223.952 145.744 221.109C121.089 218.234 95.1722 208.473 95.1722 164.864C95.1722 152.44 99.5083 142.288 106.609 134.318C105.456 131.449 101.657 119.874 107.686 104.198C107.686 104.198 117.007 101.14 138.217 115.865C147.071 113.344 156.567 112.079 166 112.034C175.433 112.077 184.936 113.343 193.807 115.865C214.993 101.14 224.301 104.198 224.301 104.198C230.343 119.874 226.544 131.449 225.392 134.318C232.509 142.288 236.813 152.44 236.813 164.864C236.813 208.579 210.846 218.202 186.129 221.019C190.111 224.551 193.658 231.477 193.658 242.095C193.658 257.323 193.531 269.579 193.531 273.327C193.531 276.358 195.528 279.907 201.154 278.789C245.236 263.723 277 221.077 277 170.81C277 107.951 227.303 57 166 57Z" fill="white"/>
<path d="M97.0424 220.405C96.7975 220.972 95.93 221.142 95.1401 220.752C94.3325 220.381 93.8828 219.61 94.1433 219.043C94.383 218.462 95.25 218.3 96.0556 218.688C96.8606 219.06 97.3196 219.838 97.0424 220.405ZM101.539 225.547C101.01 226.051 99.9727 225.817 99.2725 225.022C98.5446 224.228 98.4101 223.165 98.9473 222.657C99.4934 222.153 100.497 222.389 101.223 223.182C101.951 223.985 102.092 225.039 101.539 225.547ZM105.915 232.101C105.235 232.587 104.121 232.133 103.433 231.121C102.754 230.108 102.754 228.894 103.449 228.408C104.137 227.921 105.234 228.36 105.931 229.363C106.609 230.392 106.609 231.606 105.915 232.101ZM111.91 238.435C111.302 239.122 110.006 238.938 109.058 237.999C108.087 237.081 107.818 235.779 108.426 235.091C109.043 234.402 110.346 234.595 111.302 235.526C112.266 236.442 112.557 237.754 111.91 238.435ZM120.182 242.111C119.911 243.003 118.666 243.406 117.408 243.027C116.153 242.637 115.331 241.596 115.585 240.694C115.846 239.795 117.1 239.375 118.366 239.78C119.62 240.169 120.443 241.205 120.182 242.111ZM129.267 242.793C129.298 243.731 128.232 244.51 126.912 244.526C125.585 244.558 124.51 243.797 124.495 242.874C124.495 241.926 125.539 241.157 126.864 241.132C128.184 241.105 129.267 241.862 129.267 242.793ZM137.719 241.318C137.877 242.232 136.96 243.173 135.65 243.423C134.361 243.666 133.168 243.099 133.005 242.193C132.845 241.254 133.777 240.314 135.065 240.071C136.378 239.837 137.552 240.388 137.719 241.318Z" fill="white"/>
<path d="M411.813 159.501H366.52C365.959 159.502 365.42 159.693 365.023 160.034C364.626 160.374 364.403 160.836 364.403 161.318V180.307C364.403 181.31 365.352 182.124 366.52 182.124H384.189V205.719C384.189 205.719 380.222 206.878 369.253 206.878C356.312 206.878 338.236 202.824 338.236 168.735C338.236 134.639 357.06 130.153 374.731 130.153C390.029 130.153 396.619 132.463 400.812 133.576C402.13 133.92 403.349 132.796 403.349 131.794L408.402 113.446C408.402 112.976 408.216 112.411 407.593 112.028C405.891 110.986 395.501 106 369.253 106C339.017 106 308 117.033 308 170.064C308 223.097 343.511 231 373.436 231C398.213 231 413.243 221.92 413.243 221.92C413.863 221.628 413.93 220.885 413.93 220.545V161.318C413.93 161.079 413.876 160.843 413.769 160.623C413.663 160.402 413.507 160.202 413.311 160.033C413.114 159.865 412.881 159.731 412.624 159.64C412.367 159.548 412.092 159.501 411.813 159.501ZM645.236 112.354C645.239 112.116 645.186 111.879 645.082 111.658C644.977 111.437 644.823 111.236 644.628 111.067C644.432 110.897 644.2 110.762 643.944 110.67C643.687 110.577 643.412 110.529 643.134 110.528H617.631C617.353 110.529 617.077 110.577 616.82 110.67C616.564 110.762 616.331 110.897 616.135 111.066C615.939 111.236 615.783 111.437 615.678 111.658C615.572 111.879 615.519 112.115 615.52 112.354L615.526 154.62H575.774V112.354C575.774 111.344 574.836 110.528 573.669 110.528H548.167C547.606 110.531 547.069 110.725 546.674 111.068C546.279 111.41 546.059 111.873 546.061 112.354V226.795C546.061 227.804 547.008 228.626 548.167 228.626H573.669C574.836 228.626 575.774 227.804 575.774 226.795V177.844H615.526L615.457 226.795C615.457 227.804 616.401 228.626 617.57 228.626H643.132C644.299 228.626 645.233 227.804 645.235 226.795L645.236 112.354ZM459.938 127.372C459.938 119.498 452.576 113.134 443.493 113.134C434.419 113.134 427.05 119.498 427.05 127.372C427.05 135.239 434.419 141.62 443.493 141.62C452.576 141.62 459.938 135.239 459.938 127.372ZM458.115 202.654V149.828C458.115 148.826 457.172 148.006 456.005 148.006H430.584C429.416 148.006 428.372 149.036 428.372 150.039V225.724C428.372 227.947 429.989 228.609 432.081 228.609H454.986C457.498 228.609 458.115 227.551 458.115 225.688V202.654ZM742.158 148.177H716.852C715.69 148.177 714.746 148.997 714.746 150.008V206.12C714.746 206.12 708.315 210.155 699.191 210.155C690.066 210.155 687.644 206.603 687.644 198.942V150.007C687.644 148.996 686.701 148.176 685.54 148.176H659.855C658.697 148.176 657.746 148.996 657.746 150.007V202.646C657.746 225.404 672.537 230.973 692.884 230.973C709.579 230.973 723.038 223.064 723.038 223.064C723.038 223.064 723.678 227.232 723.97 227.726C724.258 228.218 725.014 228.717 725.831 228.717L742.171 228.655C743.329 228.655 744.279 227.833 744.279 226.828L744.27 150.007C744.27 148.996 743.325 148.177 742.158 148.177ZM801.346 210.086C792.567 209.856 786.613 206.441 786.613 206.441V170.199C786.613 170.199 792.487 167.112 799.694 166.56C808.808 165.86 817.589 168.22 817.589 186.864C817.589 206.523 813.627 210.403 801.346 210.086ZM811.327 145.606C796.954 145.606 787.178 151.107 787.178 151.107V112.354C787.178 111.344 786.235 110.528 785.074 110.528H759.498C759.219 110.53 758.944 110.578 758.688 110.67C758.432 110.763 758.199 110.898 758.003 111.067C757.808 111.237 757.653 111.438 757.548 111.658C757.443 111.879 757.389 112.116 757.391 112.354V226.795C757.391 227.806 758.335 228.627 759.501 228.627H777.245C778.044 228.627 778.649 228.272 779.097 227.654C779.538 227.039 780.175 222.378 780.175 222.378C780.175 222.378 790.631 230.876 810.428 230.876C833.672 230.876 847 220.766 847 185.491C847 150.217 825.711 145.606 811.327 145.606ZM531.412 147.995H512.281L512.252 126.321C512.252 125.501 511.76 125.091 510.653 125.091H484.584C483.572 125.091 483.026 125.474 483.026 126.31V148.706C483.026 148.706 469.962 151.41 469.08 151.629C468.639 151.739 468.252 151.968 467.976 152.283C467.7 152.597 467.551 152.98 467.551 153.373V167.448C467.551 168.458 468.494 169.276 469.66 169.276H483.027V203.134C483.027 228.281 503.596 230.752 517.476 230.752C523.82 230.752 531.407 229.005 532.66 228.608C533.417 228.37 533.858 227.698 533.858 226.968L533.88 211.486C533.88 210.475 532.884 209.657 531.765 209.657C530.649 209.657 527.798 210.047 524.862 210.047C515.465 210.047 512.28 206.301 512.28 201.452V169.275H531.412C531.69 169.274 531.966 169.226 532.223 169.133C532.48 169.041 532.713 168.906 532.909 168.736C533.105 168.566 533.26 168.365 533.365 168.144C533.471 167.922 533.524 167.686 533.523 167.447V149.819C533.523 148.808 532.578 147.995 531.412 147.995Z" fill="white"/>
</svg>
