<svg width="181" height="91" viewBox="0 0 181 91" fill="none" xmlns="http://www.w3.org/2000/svg">
<path d="M0.0894887 46.1648V39.027C4.18513 39.027 7.02604 38.2102 8.61222 36.5767C10.1984 34.9432 10.9915 32.3035 10.9915 28.6577V20.8097C10.9915 16.4299 11.5952 12.9261 12.8026 10.2983C14.0336 7.64678 15.7382 5.6463 17.9162 4.29688C20.1179 2.94744 22.7221 2.04782 25.7287 1.59801C28.7353 1.1482 32.026 0.923294 35.6009 0.923294V12.2159C32.8073 12.2159 30.6766 12.5829 29.2088 13.3168C27.7647 14.027 26.7822 15.1397 26.2614 16.6548C25.7405 18.1463 25.4801 20.0402 25.4801 22.3366V32.706C25.4801 34.5052 25.1487 36.2216 24.4858 37.8551C23.8229 39.465 22.5919 40.8973 20.7926 42.152C18.9934 43.383 16.4247 44.3655 13.0866 45.0994C9.74858 45.8097 5.41619 46.1648 0.0894887 46.1648ZM35.6009 90.8026C32.026 90.8026 28.7353 90.5777 25.7287 90.1278C22.7221 89.678 20.1179 88.7784 17.9162 87.429C15.7382 86.0795 14.0336 84.0791 12.8026 81.4276C11.5952 78.7997 10.9915 75.2959 10.9915 70.9162V63.0327C10.9915 59.3868 10.1984 56.7472 8.61222 55.1136C7.02604 53.4801 4.18513 52.6634 0.0894887 52.6634V45.5256C5.41619 45.5256 9.74858 45.8925 13.0866 46.6264C16.4247 47.3366 18.9934 48.3191 20.7926 49.5739C22.5919 50.8049 23.8229 52.2372 24.4858 53.8707C25.1487 55.4806 25.4801 57.197 25.4801 59.0199V69.3892C25.4801 71.6619 25.7405 73.544 26.2614 75.0355C26.7822 76.5507 27.7647 77.6634 29.2088 78.3736C30.6766 79.1075 32.8073 79.4744 35.6009 79.4744V90.8026ZM0.0894887 52.6634V39.027H12.8381V52.6634H0.0894887ZM180.23 45.5256V52.6634C176.158 52.6634 173.317 53.4801 171.707 55.1136C170.121 56.7472 169.328 59.3868 169.328 63.0327V70.9162C169.328 75.2959 168.712 78.7997 167.481 81.4276C166.274 84.0791 164.569 86.0795 162.368 87.429C160.19 88.7784 157.597 89.678 154.591 90.1278C151.608 90.5777 148.317 90.8026 144.718 90.8026V79.4744C147.512 79.4744 149.631 79.1075 151.075 78.3736C152.543 77.6634 153.537 76.5507 154.058 75.0355C154.579 73.544 154.839 71.6619 154.839 69.3892V59.0199C154.839 57.197 155.171 55.4806 155.833 53.8707C156.496 52.2372 157.727 50.8049 159.527 49.5739C161.326 48.3191 163.895 47.3366 167.233 46.6264C170.571 45.8925 174.903 45.5256 180.23 45.5256ZM144.718 0.923294C148.317 0.923294 151.608 1.1482 154.591 1.59801C157.597 2.04782 160.19 2.94744 162.368 4.29688C164.569 5.6463 166.274 7.64678 167.481 10.2983C168.712 12.9261 169.328 16.4299 169.328 20.8097V28.6577C169.328 32.3035 170.121 34.9432 171.707 36.5767C173.317 38.2102 176.158 39.027 180.23 39.027V46.1648C174.903 46.1648 170.571 45.8097 167.233 45.0994C163.895 44.3655 161.326 43.383 159.527 42.152C157.727 40.8973 156.496 39.465 155.833 37.8551C155.171 36.2216 154.839 34.5052 154.839 32.706V22.3366C154.839 20.0402 154.579 18.1463 154.058 16.6548C153.537 15.1397 152.543 14.027 151.075 13.3168C149.631 12.5829 147.512 12.2159 144.718 12.2159V0.923294ZM180.23 39.027V52.6634H167.481V39.027H180.23Z" fill="#757575"/>
<path d="M80.8068 59.304L80.8423 41.1577H83.044L100.516 20.4545H117.881L94.4077 47.8693H90.821L80.8068 59.304ZM67.0994 75V2.27273H82.2273V75H67.0994ZM101.19 75L85.1392 51.2429L95.2244 40.554L118.911 75H101.19Z" fill="white"/>
</svg>
