<?xml version="1.0" encoding="UTF-8"?>
<svg version="1.1" xmlns="http://www.w3.org/2000/svg" width="142" height="58">
<path d="M0 0 C0.33 6.93 0.66 13.86 1 21 C3.49997301 15.96072963 3.49997301 15.96072963 5.99536133 10.91918945 C6.98196998 8.93820752 7.98773152 6.96797864 9 5 C9.5053125 4.01 10.010625 3.02 10.53125 2 C11.0159375 1.34 11.500625 0.68 12 0 C15.6875 -0.3125 15.6875 -0.3125 19 0 C18.04725839 3.80119475 17.0104517 7.18408346 15.16796875 10.6484375 C14.84505859 11.26203125 14.52214844 11.875625 14.18945312 12.5078125 C13.5202997 13.75481186 12.83258172 14.99202183 12.12695312 16.21875 C10.68946642 19.01760394 9.83930566 20.98759119 10.34155273 24.15185547 C11.10670383 26.50242014 12.01348084 28.73374295 13 31 C13.61124723 32.56907962 14.21931839 34.13940017 14.82421875 35.7109375 C15.76234919 38.06910119 16.70740398 40.42425935 17.65820312 42.77734375 C18.11163086 43.92009766 18.11163086 43.92009766 18.57421875 45.0859375 C18.84838623 45.7670459 19.12255371 46.4481543 19.4050293 47.14990234 C20 49 20 49 20 52 C17.69 52 15.38 52 13 52 C11.87081967 49.62690978 10.74657935 47.25168006 9.625 44.875 C9.30789062 44.20984375 8.99078125 43.5446875 8.6640625 42.859375 C6.83324746 38.96889305 5.27033107 35.11895224 4 31 C2.09965347 32.59947676 1.10232963 33.52833609 0.56762695 35.99291992 C0.54144287 36.73131104 0.51525879 37.46970215 0.48828125 38.23046875 C0.45283203 39.03291016 0.41738281 39.83535156 0.38085938 40.66210938 C0.34702148 41.91217773 0.34702148 41.91217773 0.3125 43.1875 C0.27833984 44.03248047 0.24417969 44.87746094 0.20898438 45.74804688 C0.12658529 47.83156649 0.06161355 49.91576216 0 52 C-2.31 52 -4.62 52 -7 52 C-7.33 36.49 -7.66 20.98 -8 5 C-8.66 5 -9.32 5 -10 5 C-9.75 3.125 -9.75 3.125 -9 1 C-5.54245004 -1.59316247 -4.58579096 -0.91715819 0 0 Z " fill="#E1E1E1" transform="translate(10,2)"/>
<path d="M0 0 C2.31 0 4.62 0 7 0 C7 3.63 7 7.26 7 11 C8.98 11 10.96 11 13 11 C13 12.65 13 14.3 13 16 C11.02 16 9.04 16 7 16 C7.33 24.25 7.66 32.5 8 41 C9.65 41.33 11.3 41.66 13 42 C13 43.98 13 45.96 13 48 C11.3973218 48.10824843 9.79254252 48.18570645 8.1875 48.25 C7.29417969 48.29640625 6.40085937 48.3428125 5.48046875 48.390625 C3 48 3 48 1.36328125 46.3828125 C-0.42641539 43.25468942 -0.34195158 41.07644951 -0.29296875 37.484375 C-0.28330078 36.23398437 -0.27363281 34.98359375 -0.26367188 33.6953125 C-0.23853516 32.39335938 -0.21339844 31.09140625 -0.1875 29.75 C-0.16719727 27.77386719 -0.16719727 27.77386719 -0.14648438 25.7578125 C-0.11112551 22.50479679 -0.06177033 19.252604 0 16 C-1.65 16 -3.3 16 -5 16 C-5.33 16.99 -5.66 17.98 -6 19 C-7.423125 18.938125 -7.423125 18.938125 -8.875 18.875 C-12.10244856 18.65026182 -12.10244856 18.65026182 -14 21 C-14.37239227 23.81402683 -14.37239227 23.81402683 -14.4140625 27.1015625 C-14.47207031 28.91914062 -14.47207031 28.91914062 -14.53125 30.7734375 C-14.57765625 32.67996094 -14.57765625 32.67996094 -14.625 34.625 C-14.66367188 35.90375 -14.70234375 37.1825 -14.7421875 38.5 C-14.83671049 41.66652017 -14.92226357 44.8330304 -15 48 C-17.64 48 -20.28 48 -23 48 C-23 35.79 -23 23.58 -23 11 C-20.36 11 -17.72 11 -15 11 C-14.67 11.66 -14.34 12.32 -14 13 C-13.44828125 12.49855469 -12.8965625 11.99710938 -12.328125 11.48046875 C-8.30812006 8.92412333 -4.57763643 10.33744736 0 11 C0 7.37 0 3.74 0 0 Z " fill="#E0E0E0" transform="translate(83,6)"/>
<path d="M0 0 C2.31 0 4.62 0 7 0 C8.74506615 1.74506615 8.23282784 4.19039143 8.31640625 6.56640625 C8.37924805 8.2534668 8.37924805 8.2534668 8.44335938 9.97460938 C8.48267578 11.15861328 8.52199219 12.34261719 8.5625 13.5625 C8.60568359 14.75037109 8.64886719 15.93824219 8.69335938 17.16210938 C8.79983546 20.10794784 8.90184841 23.0538743 9 26 C9.61875 24.80890625 9.61875 24.80890625 10.25 23.59375 C14.91072697 15.35425053 14.91072697 15.35425053 18.24609375 14.26953125 C20.4375 14.3125 20.4375 14.3125 24 15 C22.57944884 19.13251245 20.47812834 22.33845492 17.92578125 25.83984375 C15.66023098 31.12612772 19.07923932 37.22512607 21.0625 42.25 C24 49.75171625 24 49.75171625 24 52 C21.36 52 18.72 52 16 52 C15.16080602 49.73117913 14.32848276 47.46022973 13.5 45.1875 C13.26152344 44.54490234 13.02304688 43.90230469 12.77734375 43.24023438 C11.72931254 40.35066261 11 38.09923939 11 35 C10.01 35.495 10.01 35.495 9 36 C8.68758545 38.71446979 8.48663408 41.33909361 8.375 44.0625 C8.31699219 45.20041992 8.31699219 45.20041992 8.2578125 46.36132812 C8.16326438 48.24047195 8.08053244 50.12020336 8 52 C5.36 52 2.72 52 0 52 C0 34.84 0 17.68 0 0 Z " fill="#D0D0D0" transform="translate(115,2)"/>
<path d="M0 0 C2.875 1.0625 2.875 1.0625 5 3 C7.8466734 9.87946072 7.22117614 17.10961794 7.125 24.4375 C7.11597656 25.74138672 7.10695313 27.04527344 7.09765625 28.38867188 C7.07418397 31.59263832 7.04134727 34.79622264 7 38 C4.69 38 2.38 38 0 38 C-0.33 37.34 -0.66 36.68 -1 36 C-1.66 36.66 -2.32 37.32 -3 38 C-6.05758772 38.55117805 -8.94021443 38.53238027 -12 38 C-14.93054552 35.15825889 -14.98801782 33.1078396 -15.4375 29.0625 C-15.23359298 24.73151486 -13.95455569 22.25001126 -11 19 C-4.71428571 15 -4.71428571 15 -1 15 C-1.33 12.36 -1.66 9.72 -2 7 C-3.32 7 -4.64 7 -6 7 C-6.33 8.98 -6.66 10.96 -7 13 C-9.64 13 -12.28 13 -15 13 C-14.50938967 5.64084507 -14.50938967 5.64084507 -12.0625 2.5625 C-8.19431273 -0.3679449 -4.73297287 -0.48147325 0 0 Z M-4.5625 21.5625 C-7.39576196 23.87093389 -7.39576196 23.87093389 -7.3125 27.75 C-7.209375 28.8225 -7.10625 29.895 -7 31 C-6.01 31.33 -5.02 31.66 -4 32 C-3.01 31.34 -2.02 30.68 -1 30 C-0.63583953 27.56306689 -0.63583953 27.56306689 -0.8125 24.875 C-0.83957031 23.96492188 -0.86664063 23.05484375 -0.89453125 22.1171875 C-0.92933594 21.41851562 -0.96414062 20.71984375 -1 20 C-2.3579176 19.9132321 -2.3579176 19.9132321 -4.5625 21.5625 Z " fill="#CDCDCD" transform="translate(48,16)"/>
<path d="M0 0 C0 2.64 0 5.28 0 8 C-1.7015625 8.4640625 -1.7015625 8.4640625 -3.4375 8.9375 C-6.78775099 9.62924531 -6.78775099 9.62924531 -8 11 C-8.15825258 12.99782126 -8.25119171 15.00088834 -8.31640625 17.00390625 C-8.35830078 18.21884766 -8.40019531 19.43378906 -8.44335938 20.68554688 C-8.48267578 21.96494141 -8.52199219 23.24433594 -8.5625 24.5625 C-8.60568359 25.84576172 -8.64886719 27.12902344 -8.69335938 28.45117188 C-8.799848 31.63399853 -8.90185962 34.81690674 -9 38 C-11.64 38 -14.28 38 -17 38 C-17 25.79 -17 13.58 -17 1 C-14.36 1 -11.72 1 -9 1 C-8.67 1.66 -8.34 2.32 -8 3 C-7.13375 2.2575 -7.13375 2.2575 -6.25 1.5 C-4 0 -4 0 0 0 Z " fill="#CDCDCD" transform="translate(77,16)"/>
<path d="M0 0 C2.31 0 4.62 0 7 0 C7 12.21 7 24.42 7 37 C4.69 37 2.38 37 0 37 C0 24.79 0 12.58 0 0 Z " fill="#F2F2F2" transform="translate(101,17)"/>
<path d="M0 0 C0.99 0.33 1.98 0.66 3 1 C3 4.96 3 8.92 3 13 C4.32 12.67 5.64 12.34 7 12 C7 8.37 7 4.74 7 1 C7.66 1 8.32 1 9 1 C9.0809313 3.60478883 9.14045434 6.20706653 9.1875 8.8125 C9.22520508 9.91948242 9.22520508 9.91948242 9.26367188 11.04882812 C9.33709198 16.45744243 9.33709198 16.45744243 7.76953125 18.98046875 C4.36108453 20.9442758 0.78218007 20.73248925 -3 20 C-5.93054552 17.15825889 -5.98801782 15.1078396 -6.4375 11.0625 C-6.28506763 6.82648463 -4.70979441 4.26769325 -2 1 C-1.34 0.67 -0.68 0.34 0 0 Z " fill="#C6C6C6" transform="translate(39,34)"/>
<path d="M0 0 C0 0.33 0 0.66 0 1 C-1.98 1 -3.96 1 -6 1 C-6 17.5 -6 34 -6 51 C-4.02 51 -2.04 51 0 51 C0 51.33 0 51.66 0 52 C-2.31 52 -4.62 52 -7 52 C-7.33 36.49 -7.66 20.98 -8 5 C-8.66 5 -9.32 5 -10 5 C-9.75 3.125 -9.75 3.125 -9 1 C-5.84213022 -1.36840234 -3.69270227 -1.02575063 0 0 Z " fill="#A3A3A3" transform="translate(10,2)"/>
<path d="M0 0 C2.31 0 4.62 0 7 0 C7 2.64 7 5.28 7 8 C4.69 8 2.38 8 0 8 C0 5.36 0 2.72 0 0 Z " fill="#CECECE" transform="translate(101,4)"/>
<path d="M0 0 C0 0.33 0 0.66 0 1 C-2.31 1 -4.62 1 -7 1 C-7.33 2.32 -7.66 3.64 -8 5 C-8.66 5 -9.32 5 -10 5 C-9.75 3.125 -9.75 3.125 -9 1 C-5.84213022 -1.36840234 -3.69270227 -1.02575063 0 0 Z " fill="#070707" transform="translate(10,2)"/>
</svg>
